<svg width="224" height="32" viewBox="0 0 224 32" fill="none" xmlns="http://www.w3.org/2000/svg">
    <path d="M45.8853 19.2189C45.664 17.4323 45.3413 15.6616 44.8827 13.9763C44.376 12.2163 43.5787 10.4696 42.3947 8.89092C41.2773 7.40825 39.8587 6.16825 38.216 5.26692C37.3947 4.81625 36.512 4.45092 35.5813 4.19758C34.6507 3.94425 33.6693 3.80025 32.6613 3.80025C32.264 3.80025 31.8667 3.82158 31.4667 3.86692C30.344 3.99492 29.2773 4.30158 28.3013 4.73358C27.424 5.12292 26.6187 5.61092 25.8827 6.17092C25.5787 5.85625 25.2613 5.56025 24.9307 5.29092C23.8293 4.39492 22.5947 3.74158 21.3067 3.30692C20.0187 2.87225 18.672 2.65625 17.3173 2.65625C15.9173 2.65625 14.5067 2.88825 13.1493 3.38425C12.568 3.59758 12.008 3.85092 11.4747 4.13892C11.472 3.60558 11.4693 3.47758 11.4667 2.94425L4 2.97892C4.03733 11.5256 4.00267 20.5443 4.00267 29.3443H11.736C11.7173 25.4163 11.4587 21.5016 11.5253 17.5763C11.5573 15.7549 11.7733 13.6136 12.9627 12.1469C14.048 10.8109 15.6 10.1203 17.3173 10.1203C18.048 10.1176 18.792 10.2856 19.4027 10.5736C19.7093 10.7176 19.9813 10.8883 20.2133 11.0776C20.448 11.2669 20.64 11.4749 20.8 11.7016C21.0053 11.9923 21.176 12.3229 21.3227 12.7229C21.544 13.3229 21.6987 14.0883 21.784 14.9789C21.872 15.8696 21.8933 16.8749 21.9013 17.9416C21.9307 21.1603 21.96 25.8563 21.9893 29.0749C21.9893 29.0749 29.4347 29.0083 29.456 29.0083C29.3387 25.6083 29.344 21.0909 29.3387 20.5416C29.32 18.7949 29.368 17.0403 29.608 15.3069C29.888 13.2749 30.9067 11.5949 33.2027 11.5683C35.4747 11.5416 36.736 14.3283 37.088 16.2296C37.6107 19.0483 37.6453 21.8163 37.6293 24.6696C37.6267 25.0376 37.704 29.3443 37.6053 29.3443C35.7387 29.3443 46.1387 29.3443 46.1387 29.3443C46.4827 29.3016 46.304 24.8083 46.288 24.3869C46.224 22.6963 46.1013 20.9496 45.8853 19.2189Z" fill="#9ACD66"/>
    <path d="M79.1973 27.1221C77.4239 22.4581 76.5226 17.4475 76.5226 12.4421C76.5226 9.50881 76.8319 6.57548 77.4559 3.71948L70.1599 2.13281C69.9359 3.15681 69.7519 4.18615 69.5973 5.22081C67.6133 4.05015 65.2853 3.37281 62.8266 3.37548C60.9946 3.37548 59.2319 3.74881 57.6346 4.42615C55.2373 5.44215 53.2079 7.12748 51.7706 9.25281C50.3333 11.3755 49.4906 13.9621 49.4906 16.7115C49.4906 18.5408 49.8639 20.3061 50.5413 21.9035C51.5573 24.3008 53.2426 26.3301 55.3679 27.7675C57.4906 29.2048 60.0773 30.0475 62.8266 30.0475C64.6559 30.0475 66.4213 29.6741 68.0186 28.9968C69.2026 28.4955 70.2959 27.8315 71.2719 27.0315C71.5599 27.9568 71.8746 28.8741 72.2186 29.7808L79.1973 27.1221ZM68.2346 18.9915C67.7919 20.0395 67.0426 20.9435 66.1039 21.5755C65.1626 22.2075 64.0533 22.5728 62.8266 22.5755C62.0053 22.5755 61.2453 22.4101 60.5439 22.1168C59.4959 21.6741 58.5919 20.9248 57.9599 19.9861C57.3279 19.0448 56.9626 17.9355 56.9599 16.7088C56.9599 15.8875 57.1253 15.1275 57.4186 14.4261C57.8613 13.3781 58.6106 12.4741 59.5493 11.8421C60.4906 11.2101 61.5999 10.8448 62.8266 10.8421C63.6479 10.8421 64.4079 11.0075 65.1093 11.3008C66.1573 11.7435 67.0613 12.4928 67.6933 13.4315C68.3253 14.3728 68.6906 15.4821 68.6933 16.7088C68.6933 17.5301 68.5279 18.2901 68.2346 18.9915Z" fill="#F8868D"/>
    <path d="M136.531 27.1221C134.757 22.4581 133.856 17.4475 133.856 12.4421C133.856 9.50881 134.165 6.57548 134.789 3.71948L127.493 2.13281C127.269 3.15681 127.085 4.18615 126.931 5.22081C124.947 4.05015 122.619 3.37281 120.16 3.37548C118.328 3.37548 116.565 3.74881 114.968 4.42615C112.571 5.44215 110.541 7.12748 109.104 9.25281C107.667 11.3755 106.824 13.9621 106.824 16.7115C106.824 18.5408 107.197 20.3061 107.875 21.9035C108.891 24.3008 110.576 26.3301 112.701 27.7675C114.824 29.2048 117.411 30.0475 120.16 30.0475C121.989 30.0475 123.755 29.6741 125.352 28.9968C126.536 28.4955 127.629 27.8315 128.605 27.0315C128.893 27.9568 129.208 28.8741 129.552 29.7808L136.531 27.1221ZM125.568 18.9915C125.125 20.0395 124.376 20.9435 123.437 21.5755C122.496 22.2075 121.387 22.5728 120.16 22.5755C119.339 22.5755 118.579 22.4101 117.877 22.1168C116.829 21.6741 115.925 20.9248 115.293 19.9861C114.661 19.0448 114.296 17.9355 114.293 16.7088C114.293 15.8875 114.459 15.1275 114.752 14.4261C115.195 13.3781 115.944 12.4741 116.883 11.8421C117.824 11.2101 118.933 10.8448 120.16 10.8421C120.981 10.8421 121.741 11.0075 122.443 11.3008C123.491 11.7435 124.395 12.4928 125.027 13.4315C125.659 14.3728 126.024 15.4821 126.027 16.7088C126.027 17.5301 125.861 18.2901 125.568 18.9915Z" fill="#579AEA"/>
    <path d="M103.437 5.25546C102.219 4.35146 100.875 3.68479 99.4774 3.24212C98.0801 2.79946 96.6267 2.58079 95.1707 2.57812C92.8881 2.57812 90.5841 3.11946 88.5014 4.27412C87.3974 4.88746 86.4054 5.65013 85.5414 6.51679C84.2427 7.81812 83.2187 9.35412 82.5094 11.0315C81.8001 12.7088 81.4054 14.5301 81.4054 16.4048C81.4054 16.7568 81.4187 17.1141 81.4507 17.4768V17.4715C81.5627 18.8208 81.8801 20.1195 82.3654 21.3381C83.0961 23.1648 84.1947 24.8101 85.5814 26.1835C86.9681 27.5541 88.6507 28.6608 90.5627 29.3435C92.0454 29.8741 93.5841 30.1195 95.1014 30.1195C96.9547 30.1195 98.7867 29.7541 100.499 29.0581C102.208 28.3595 103.8 27.3221 105.136 25.9435L99.7707 20.7515C99.2081 21.3328 98.4881 21.8155 97.6747 22.1461C96.8641 22.4795 95.9681 22.6555 95.1014 22.6528C94.3894 22.6528 93.7014 22.5355 93.0747 22.3115C92.5361 22.1195 92.0134 21.8368 91.5281 21.4741C90.7974 20.9301 90.1574 20.2075 89.6987 19.3995C89.2374 18.5915 88.9601 17.7115 88.8907 16.8608V16.8555C88.8774 16.7088 88.8721 16.5595 88.8721 16.4021C88.8694 15.3221 89.1894 14.1621 89.7787 13.1568C90.0721 12.6528 90.4267 12.1915 90.8267 11.7915C91.2267 11.3915 91.6667 11.0581 92.1334 10.7995C93.0081 10.3115 94.0774 10.0421 95.1734 10.0448C95.8721 10.0448 96.5734 10.1515 97.2241 10.3595C97.8774 10.5648 98.4747 10.8688 98.9894 11.2501L103.437 5.25546Z" fill="#FCCC52"/>
    <path d="M158.235 3.19141C155.981 3.19141 153.765 3.63141 151.696 4.45007C150.227 5.03141 148.832 5.81007 147.557 6.77007C147.533 5.59674 147.507 4.42341 147.483 3.25007L140.019 3.41007C140.2 11.9861 140.384 20.5621 140.568 29.1381L148.032 28.9781C147.984 26.6794 147.965 24.3807 147.971 22.0821C147.976 20.2741 148.136 18.4687 148.864 16.7941C149.416 15.5274 150.219 14.3727 151.195 13.4501C152.115 12.5781 153.232 11.8741 154.445 11.3941C155.659 10.9141 156.96 10.6607 158.235 10.6607C158.389 10.6607 158.539 10.6634 158.683 10.6714L159.048 3.21274C158.771 3.19674 158.501 3.19141 158.235 3.19141Z" fill="#EC8FDD"/>
    <path d="M219.291 18.8534C218.979 16.8428 218.472 14.8721 217.672 12.9894C217.227 11.9468 216.611 11.0188 216.109 10.0134C215.541 9.12542 214.875 8.28009 214.091 7.51209C212.891 6.33609 211.496 5.43742 210 4.83209C208.507 4.22676 206.912 3.91209 205.301 3.91209C203.685 3.91209 202.051 4.23209 200.512 4.90409C200.376 4.96276 200.245 5.02409 200.112 5.08809C200.117 4.51209 200.12 3.93342 200.123 3.35742L192.427 3.37609C192.427 3.37609 192.536 20.7361 192.475 29.4561L199.941 29.5094C199.96 26.9734 199.976 24.4348 199.995 21.8988C200.003 20.6481 200.013 19.4001 200.021 18.1494C200.032 16.5441 200.211 15.1574 201.139 13.8001C201.469 13.3121 201.853 12.8854 202.256 12.5388C202.659 12.1921 203.083 11.9254 203.499 11.7441C204.056 11.5014 204.667 11.3761 205.299 11.3761C205.931 11.3761 206.581 11.5014 207.192 11.7494C207.805 11.9974 208.373 12.3654 208.859 12.8401C209.2 13.1734 209.52 13.5708 209.813 14.0294C210.253 14.7174 210.629 15.5441 210.917 16.4641C211.413 18.0481 211.485 19.7148 211.603 21.3574C211.645 21.9574 211.893 29.2428 211.893 29.2428C211.893 29.2428 219.867 29.2428 219.893 29.2428C219.939 29.2428 219.597 21.4508 219.531 20.7681C219.469 20.1254 219.389 19.4881 219.291 18.8534Z" fill="#62C6AE"/>
    <path d="M175.227 29.7751C182.664 29.7751 188.693 23.7459 188.693 16.3085C188.693 8.87103 182.664 2.8418 175.227 2.8418C167.789 2.8418 161.76 8.87103 161.76 16.3085C161.76 23.7459 167.789 29.7751 175.227 29.7751Z" fill="#9999F8"/>
</svg>
